<?xml version="1.0" encoding="UTF-8" standalone="no"?>
<svg
   viewBox="0 0 235 133"
   version="1.1"
   id="svg4032"
   sodipodi:docname="iconrobot.svg"
   inkscape:version="1.2.2 (732a01da63, 2022-12-09)"
   xmlns:inkscape="http://www.inkscape.org/namespaces/inkscape"
   xmlns:sodipodi="http://sodipodi.sourceforge.net/DTD/sodipodi-0.dtd"
   xmlns="http://www.w3.org/2000/svg"
   xmlns:svg="http://www.w3.org/2000/svg">
  <defs
     id="defs4036" />
  <sodipodi:namedview
     id="namedview4034"
     pagecolor="#ffffff"
     bordercolor="#000000"
     borderopacity="0.25"
     inkscape:showpageshadow="2"
     inkscape:pageopacity="0.0"
     inkscape:pagecheckerboard="0"
     inkscape:deskcolor="#d1d1d1"
     showgrid="false"
     inkscape:zoom="5.8345865"
     inkscape:cx="117.57474"
     inkscape:cy="66.5"
     inkscape:window-width="1920"
     inkscape:window-height="974"
     inkscape:window-x="-11"
     inkscape:window-y="-11"
     inkscape:window-maximized="1"
     inkscape:current-layer="svg4032" />
  <path
     fill="#fdfdfd"
     d="M0 0v133h235V0H0z"
     id="path4020" />
  <path
     fill="#2fc4ee"
     d="M 83,16 C 72,18 61,23 53,31 l -9,11 c -8,10 -15,18 -13,33 2,9 8,14 13,20 6,6 9,12 16,17 13,9 28,9 44,9 h 41 c 12,0 25,2 37,0 17,-3 27,-13 38,-26 8,-10 15,-18 13,-33 -2,-9 -8,-14 -13,-20 -6,-6 -9,-12 -16,-17 -14,-9 -28,-9 -44,-9 h -38 c -13,0 -26,-2 -39,0 z"
     id="path4022" />
  <path
     fill="#fdfdfd"
     d="m 84,31 c -33,6 -42,51 -14,69 11,7 23,6 35,6 h 49 c 9,0 18,1 27,-1 32,-7 41,-51 12,-69 -11,-6 -24,-5 -36,-5 z"
     id="path4024" />
  <path
     fill="#2fc4ee"
     d="m 84,40 c -15,3 -21,23 -12,35 5,8 16,11 25,8 15,-3 21,-23 12,-35 -5,-8 -16,-11 -25,-8 m 83,0 c -15,3 -21,23 -12,35 5,8 16,11 25,8 15,-3 21,-23 12,-35 -5,-8 -16,-11 -25,-8 z"
     id="path4026" />
  <path
     fill="#fdfdfd"
     d="m 88,55 c -9,3 -4,16 5,13 9,-3 4,-16 -5,-13 m 83,0 c -9,3 -4,16 5,13 9,-3 4,-16 -5,-13 z"
     id="path4028" />
  <path
     fill="#2fc4ee"
     d="m 113,84 v 15 h 38 V 84 Z"
     id="path4030" />
</svg>
