<?xml version="1.0" encoding="UTF-8" standalone="no"?>
<svg
   viewBox="0 0 133 133"
   version="1.1"
   id="svg4032"
   sodipodi:docname="iconwhitelamp.svg"
   inkscape:version="1.2.2 (732a01da63, 2022-12-09)"
   width="133"
   height="133"
   xmlns:inkscape="http://www.inkscape.org/namespaces/inkscape"
   xmlns:sodipodi="http://sodipodi.sourceforge.net/DTD/sodipodi-0.dtd"
   xmlns="http://www.w3.org/2000/svg"
   xmlns:svg="http://www.w3.org/2000/svg">
  <defs
     id="defs4036" />
  <sodipodi:namedview
     id="namedview4034"
     pagecolor="#ffffff"
     bordercolor="#000000"
     borderopacity="0.25"
     inkscape:showpageshadow="2"
     inkscape:pageopacity="0.0"
     inkscape:pagecheckerboard="0"
     inkscape:deskcolor="#d1d1d1"
     showgrid="false"
     inkscape:zoom="2.9172933"
     inkscape:cx="99.921391"
     inkscape:cy="68.556701"
     inkscape:window-width="1920"
     inkscape:window-height="974"
     inkscape:window-x="-11"
     inkscape:window-y="-11"
     inkscape:window-maximized="1"
     inkscape:current-layer="svg4032" />
  <rect
     style="fill:#f4d156;fill-opacity:1;stroke:#f4d156;stroke-width:22.6706;stroke-linecap:round;stroke-linejoin:round;stroke-dasharray:none;stroke-opacity:1"
     id="rect6116"
     width="104.56239"
     height="102.8485"
     x="14.904347"
     y="15.190441" />
  <g
     id="g8207"
     transform="matrix(0.74177376,0,0,0.79845289,-123.84679,26.041177)">
    <path
       fill="#fdfdfd"
       d="m 240.9239,53.796499 v 16.1012 c 0,2.5423 -1.1707,5.08459 1.1707,6.77945 3.5121,4.23716 19.90188,2.5423 25.75537,2.5423 2.3414,-0.84743 5.8535,-0.84743 7.0242,-2.5423 2.3414,-2.54229 1.1707,-5.08458 1.1707,-7.62688 v -15.25377 c 5.85349,0 16.38978,1.69487 22.24328,-0.84743 8.19489,-3.38972 10.53629,-12.71147 11.70699,-18.64349 5.85349,-23.728081 -19.90188,-44.066438 -52.68146,-44.066438 -31.60886,0 -56.19354,22.033216 -50.34005,44.913868 1.1707,5.93202 4.6828,14.40634 11.70699,17.79606 5.8535,2.5423 16.38979,0.84743 22.24328,0.84743 z"
       id="path27"
       style="fill:#f4d156;fill-opacity:1;stroke:#ffffff;stroke-width:18.9247;stroke-linecap:round;stroke-linejoin:round;stroke-dasharray:none;stroke-opacity:1" />
    <path
       fill="#f4d156"
       d="m 240.9239,96.294449 c 0,6.221391 -1.1707,14.516571 3.5121,20.737961 7.0242,9.33208 23.41397,8.29519 29.26747,-2.07379 3.5121,-5.18449 2.3414,-12.44278 2.3414,-18.664171 -12.87769,4.147601 -22.24328,4.147601 -35.12097,0 z"
       id="path29"
       style="fill:#ffffff;fill-opacity:1;stroke-width:1.10177" />
  </g>
</svg>
