<svg xmlns="http://www.w3.org/2000/svg" viewBox="0 0 201 234">
  <path fill="#fdfdfd" d="M -0.7628032,0.76280324 1.1442049,200.61725 l 198.4137451,0 -0.76281,-199.0916435 z"/>
  <path fill="#fdfdfd" d="m 87.039224,129.2087 v 16.1012 c 0,2.5423 -1.170699,5.08459 1.170699,6.77945 3.512097,4.23716 19.901877,2.5423 25.755367,2.5423 2.3414,-0.84743 5.8535,-0.84743 7.0242,-2.5423 2.3414,-2.54229 1.1707,-5.08458 1.1707,-7.62688 V 129.2087 c 5.85349,0 16.38978,1.69487 22.24328,-0.84743 8.19489,-3.38972 10.53629,-12.71147 11.70699,-18.64349 5.85349,-23.728081 -19.90188,-44.066438 -52.68146,-44.066438 -31.608863,0 -56.193542,22.033216 -50.340047,44.913868 1.170699,5.93202 4.682796,14.40634 11.70699,17.79606 5.853495,2.5423 16.389786,0.84743 22.243281,0.84743 z"
        style="stroke:#f4d156;stroke-width:18.9247;stroke-linecap:round;stroke-linejoin:round;stroke-dasharray:none;stroke-opacity:1" />
  <path
     fill="#f4d156" d="m 87.039224,171.70665 c 0,6.22139 -1.170699,14.51657 3.512097,20.73796 7.024199,9.33208 23.413969,8.29519 29.267469,-2.07379 3.5121,-5.18449 2.3414,-12.44278 2.3414,-18.66417 -12.87769,4.1476 -22.243283,4.1476 -35.120966,0 z"
     style="stroke-width:1.10177" />
</svg>
