<svg xmlns="http://www.w3.org/2000/svg" viewBox="0 0 43 42.89">
  <g fill="#707070">
    <path d="M21.5 0A21.52 21.52 0 0 0 0 21.5c1.18 28.52 41.82 28.51 43 0A21.52 21.52 0 0 0 21.5 0Zm0 40A18.52 18.52 0 0 1 3 21.5c1-24.54 36-24.54 37 0A18.52 18.52 0 0 1 21.5 40Z"/>
    <path d="M21.5 8.25a7.09 7.09 0 0 0-7.07 7.07 1.5 1.5 0 0 0 3 0 4.07 4.07 0 1 1 4.07 4.07 1.5 1.5 0 0 0-1.5 1.5v7.86a1.5 1.5 0 0 0 3 0v-6.52c8.15-1.92 6.95-13.8-1.5-13.98ZM21.5 31.84a1.59 1.59 0 1 0 1.59 1.59 1.59 1.59 0 0 0-1.59-1.59Z"/>
  </g>
</svg>