<svg xmlns="http://www.w3.org/2000/svg" viewBox="0 0 81.17 81.19">
  <path fill="#707070" stroke="#707070" d="M80.67 40.6a40 40 0 0 0-10.83-27.39 40 40 0 0 0-56.53-2 41.9 41.9 0 0 0-2 2 40 40 0 0 0 0 54.79 40.26 40.26 0 0 0 29.27 12.69A40.23 40.23 0 0 0 69.83 68a40 40 0 0 0 10.84-27.4ZM68.5 64.24l-.22-.2a12.3 12.3 0 0 0-.53-.49c-.37-.35-.75-.69-1.14-1l-.62-.52-1.17-.92-.62-.47c-.46-.33-.93-.65-1.4-1l-.44-.3a54 54 0 0 0-1.91-1.16l-.45-.25c-.5-.28-1-.55-1.52-.8l-.7-.34c-.44-.21-.89-.42-1.35-.61l-.75-.32-.51-.21.17-1.38c.06-.46.14-1 .19-1.48.09-.77.17-1.54.24-2.32 0-.47.09-.93.12-1.4.07-.9.12-1.82.16-2.73 0-.36.05-.71.06-1.07 0-1.25.08-2.51.08-3.78h21a36.41 36.41 0 0 1-8.69 22.75ZM50.93 59.4c-.08.37-.15.73-.24 1.09l-.23 1-.26 1-.25.94-.28 1c-.09.34-.19.6-.28.89l-.3.93-.29.83-.33.87-.31.77-.34.81-.33.71c-.11.25-.24.5-.36.74l-.33.64-.38.67-.34.58-.4.6a8.4 8.4 0 0 1-.76 1.03l-.35.42-.43.45-.35.35c-.12.11-.3.25-.45.36l-.34.27c-.16.11-.32.19-.48.28l-.32.18c-.18.08-.36.13-.54.19a2.66 2.66 0 0 1-.27.09 3.74 3.74 0 0 1-.81.1 3.58 3.58 0 0 1-.8-.1 1 1 0 0 1-.27-.09c-.09 0-.36-.11-.54-.19a2.61 2.61 0 0 1-.32-.18c-.11-.06-.32-.17-.48-.28l-.33-.26a5.32 5.32 0 0 1-.46-.37l-.34-.34c-.11-.11-.3-.29-.44-.46l-.34-.4-.43-.54-.33-.49-.41-.61-.33-.56c-.13-.23-.27-.45-.39-.69l-.33-.63-.37-.76-.31-.72-.36-.83-.3-.75-.33-.89-.29-.81c-.1-.31-.21-.63-.31-1l-.27-.8-.29-1-.25-.92c-.09-.31-.17-.7-.26-1.06l-.23-1-.24-1.1a58.9 58.9 0 0 1-.2-1 2.32 2.32 0 0 0-.07-.38c.75-.23 1.51-.42 2.27-.6l.51-.12c.71-.15 1.44-.28 2.16-.4l.61-.08q1.08-.16 2.16-.24h.57c.7 0 1.4-.07 2.1-.07h.45c.7 0 1.4 0 2.1.07l.61-.02a15.83 15.83 0 0 1 2.17.24l.6.08c.73.12 1.45.25 2.17.4l.5.12c.76.18 1.52.37 2.28.6a2.79 2.79 0 0 1-.07.38ZM30.5 22.05l.24-1.05.23-.91c.07-.3.18-.67.27-1l.25-.86a31.4 31.4 0 0 1 .56-1.75l.3-.88.29-.77.32-.81.3-.72.34-.78.31-.65.36-.69.32-.6a10.12 10.12 0 0 1 .71-1.09c.12-.15.25-.37.38-.55l.33-.46.4-.49.34-.39.42-.41.33-.34.44-.33a2.43 2.43 0 0 1 .32-.24c.15-.1.31-.18.46-.26a3.16 3.16 0 0 1 .31-.16 4.56 4.56 0 0 1 .52-.18l.26-.08a3.38 3.38 0 0 1 1.55 0l.26.08a4.56 4.56 0 0 1 .52.18c.1 0 .2.11.3.16s.31.16.47.26l.32.24a4.7 4.7 0 0 1 .44.34l.33.31.42.41.33.39.4.49.33.45c.13.19.27.37.39.57l.33.52.37.63.32.58.36.7.31.65c.11.22.23.5.34.76l.3.7.32.83.28.75.31.89.27.81.29.94.25.86.27 1 .22.9.25 1.06.21.93.06.31c-.73.22-1.46.4-2.2.57l-.46.1c-.71.15-1.41.28-2.12.39l-.6.08c-.7.1-1.4.17-2.11.23h-.55c-.68 0-1.36.07-2 .07h-.45a18.72 18.72 0 0 1-2-.07h-.55c-.71-.06-1.41-.13-2.11-.23l-.59-.08c-.71-.11-1.42-.24-2.12-.39l-.47-.1c-.74-.17-1.47-.35-2.2-.57l.06-.31Zm18.9 31.86-.56-.13c-.69-.15-1.39-.27-2.09-.37l-.92-.14a33.9 33.9 0 0 0-2-.21l-1-.07h-4.4l-1 .07c-.67.05-1.35.12-2 .21l-.93.14c-.7.1-1.4.23-2.1.37l-.54.13c-.69.15-1.39.33-2.07.52l-.29.09a8 8 0 0 0-.14-1 65.3 65.3 0 0 1-.38-3.58l-.12-1.31c-.06-.84-.1-1.69-.14-2.54 0-.35-.05-.7-.06-1.06a26.94 26.94 0 0 1-.16-3.51h24.17c0 1.2 0 2.39-.07 3.57a7.31 7.31 0 0 1-.05 1q-.06 1.29-.15 2.55c0 .44-.07.88-.11 1.32l-.22 2.22-.17 1.35-.14.94-.3-.07c-.68-.16-1.37-.34-2.06-.49Zm-17.15-26.5h.07c.85.18 1.72.33 2.59.45h.23c.87.12 1.75.22 2.63.28h.1c.9.07 1.81.1 2.71.1a24.73 24.73 0 0 0 2.72-.1h.1a57.1 57.1 0 0 0 2.63-.27h.24q1.29-.18 2.58-.45h.07c.81-.17 1.61-.37 2.4-.59l.23-.06.17 1.06.14 1c.13 1 .24 2 .34 2.94v.4c.1 1.13.19 2.27.25 3.43v.92a14.54 14.54 0 0 0 0 1.48H28.5a14.54 14.54 0 0 1 .05-1.48v-1c.07-1.15.15-2.29.26-3.42v-.44c.1-1 .21-1.94.34-2.9a7.07 7.07 0 0 1 .14-1l.17-1.06.23.06c.96.28 1.81.48 2.56.65ZM56.12 38a12.1 12.1 0 0 0-.08-1.7v-1.11c-.07-1.19-.16-2.38-.27-3.55v-.32c-.11-1.06-.23-2.11-.37-3.14 0-.37-.11-.74-.16-1.1s-.14-1-.22-1.44l.48-.22.76-.31c.46-.2.92-.4 1.38-.62l.7-.33q.78-.39 1.53-.81l.48-.25c.66-.38 1.3-.77 1.94-1.18l.42-.28c.49-.32 1-.66 1.45-1l.62-.47c.41-.3.8-.61 1.2-.93l.63-.53 1.15-1 .55-.51.23-.21a36.34 36.34 0 0 1 8.59 21Zm10-23.6-.24.23-.49.46-1.06.94-.53.49c-.4.32-.79.63-1.2.93l-.43.33c-.55.4-1.1.79-1.67 1.16l-.35.21a29 29 0 0 1-1.4.85l-.6.33c-.41.23-.83.44-1.25.66l-.62.3c-.47.23-1 .44-1.43.64l-.44.19-.12.05a1.73 1.73 0 0 0-.07-.31c0-.11-.07-.31-.11-.47-.14-.65-.3-1.3-.46-1.93l-.06-.24c-.17-.68-.36-1.34-.55-2 0-.15-.09-.3-.14-.45q-.28-1-.6-1.86l-.06-.16c-.2-.56-.4-1.1-.61-1.62l-.13-.39c-.22-.54-.45-1.07-.68-1.58l-.14-.29c-.21-.45-.43-.88-.66-1.3l-.12-.24c-.25-.46-.51-.9-.77-1.31a2.75 2.75 0 0 0-.19-.28 13.59 13.59 0 0 0-1.65-2.17l-.2-.22a16.1 16.1 0 0 0-.82-.83A36.08 36.08 0 0 1 66.1 14.4Zm-32-9.13a2.2 2.2 0 0 0-.2.23c-.3.32-.59.65-.86 1-.27.36-.54.75-.8 1.15l-.18.29c-.26.42-.52.85-.77 1.31 0 .08-.09.16-.13.25-.22.41-.44.84-.65 1.29 0 .1-.1.2-.14.3-.24.5-.47 1-.69 1.57l-.15.37c-.21.53-.41 1.06-.6 1.61l-.07.18-.6 1.85a1.56 1.56 0 0 1-.14.45c-.19.64-.37 1.3-.55 2l-.06.25c-.16.62-.31 1.27-.46 1.92a2.46 2.46 0 0 1-.1.47c0 .15 0 .21-.07.31l-.13-.05-.43-.19c-.49-.2-1-.41-1.44-.64l-.62-.3c-.42-.21-.83-.43-1.25-.66l-.53-.33c-.47-.27-.94-.55-1.4-.84l-.35-.22c-.57-.37-1.13-.76-1.68-1.16l-.43-.33c-.4-.3-.8-.61-1.19-.93l-.54-.45-1-.94-.5-.46-.23-.23a36.16 36.16 0 0 1 19.89-10c-.38.36-.65.64-.92.93Zm-21.45 11.7.23.21.57.52c.37.34.75.68 1.14 1l.64.53c.39.32.78.63 1.18.93l.63.47c.47.35 1 .68 1.44 1l.43.29c.64.4 1.28.79 1.94 1.17l.48.26 1.52.8.72.34 1.36.61.77.32c.18.06.34.14.51.21l-.22 1.53-.16 1c-.15 1.15-.29 2.32-.41 3.51v.15c-.1 1.14-.19 2.29-.26 3.46a8.7 8.7 0 0 1-.05 1.14c-.05.38-.06 1-.07 1.54h-21a36.43 36.43 0 0 1 8.61-20.99Zm12.32 24.55c0 1.28 0 2.54.08 3.79a6.57 6.57 0 0 0 .05 1c.05.94.1 1.87.17 2.79 0 .46.08.92.12 1.38l.23 2.33.2 1.49.17 1.37-.51.21-.75.32c-.46.2-.91.4-1.35.61l-.7.34c-.51.25-1 .52-1.51.8l-.47.25c-.64.37-1.27.76-1.9 1.16l-.45.31c-.47.31-.93.63-1.39 1l-.63.48c-.39.29-.78.6-1.16.91l-.63.52-1.12 1-.55.51-.22.19a36.43 36.43 0 0 1-8.66-22.76Zm-9.92 25.29.22-.22.47-.44 1.06-.94.52-.44c.39-.32.78-.63 1.19-.93l.4-.32q.81-.59 1.65-1.14l.38-.24c.44-.28.89-.55 1.34-.81l.59-.33c.4-.23.81-.44 1.23-.65.19-.1.39-.21.59-.3.49-.24 1-.46 1.49-.68l.35-.15h.07l.06.27c.11.57.24 1.13.36 1.69l.21 1c.17.69.34 1.35.52 2l.14.51a46.47 46.47 0 0 0 .95 2.99c.18.53.36 1 .56 1.54l.32.79.52 1.23.38.78.53 1.06.41.73.55.92.45.67c.18.28.38.55.57.8l.24.34a36.11 36.11 0 0 1-18.32-9.73Zm32.94 9.35.59-.81.43-.66c.19-.3.38-.61.56-.93l.41-.73.53-1.06.38-.78c.18-.39.35-.81.52-1.22l.33-.8c.19-.49.37-1 .55-1.51.07-.23.16-.44.23-.68q.39-1.12.72-2.34l.15-.54.51-2 .21-1c.13-.55.25-1.1.36-1.67l.06-.27h.07l.36.15c.49.22 1 .44 1.48.68l.6.3c.41.21.82.42 1.22.65l.6.33c.45.26.89.53 1.33.81l.39.24c.55.37 1.1.75 1.64 1.14l.41.32 1.18.93.53.45a12.68 12.68 0 0 1 1 .92l.49.45.21.22a36.13 36.13 0 0 1-18.28 9.77l.23-.36Z"/>
</svg>