<?xml version="1.0" encoding="UTF-8" standalone="no"?>
<svg
   viewBox="0 0 133 133"
   version="1.1"
   id="svg4032"
   sodipodi:docname="iconwhiterobot.svg"
   inkscape:version="1.2.2 (732a01da63, 2022-12-09)"
   width="133"
   height="133"
   xmlns:inkscape="http://www.inkscape.org/namespaces/inkscape"
   xmlns:sodipodi="http://sodipodi.sourceforge.net/DTD/sodipodi-0.dtd"
   xmlns="http://www.w3.org/2000/svg"
   xmlns:svg="http://www.w3.org/2000/svg">
  <defs
     id="defs4036" />
  <sodipodi:namedview
     id="namedview4034"
     pagecolor="#ffffff"
     bordercolor="#000000"
     borderopacity="0.25"
     inkscape:showpageshadow="2"
     inkscape:pageopacity="0.0"
     inkscape:pagecheckerboard="0"
     inkscape:deskcolor="#d1d1d1"
     showgrid="false"
     inkscape:zoom="2.9172933"
     inkscape:cx="99.921391"
     inkscape:cy="68.556701"
     inkscape:window-width="1920"
     inkscape:window-height="974"
     inkscape:window-x="-11"
     inkscape:window-y="-11"
     inkscape:window-maximized="1"
     inkscape:current-layer="svg4032" />
  <rect
     style="fill:#2fc4ee;fill-opacity:1;stroke:#2fc4ee;stroke-width:22.6706;stroke-linecap:round;stroke-linejoin:round;stroke-dasharray:none;stroke-opacity:1"
     id="rect6116"
     width="104.56239"
     height="102.8485"
     x="14.904347"
     y="15.190441" />
  <g
     id="g7299"
     transform="matrix(0.5281642,0,0,0.79454391,-1.2447405,10.01704)">
    <path
       fill="#2fc4ee"
       d="M 83,16 C 72,18 61,23 53,31 l -9,11 c -8,10 -15,18 -13,33 2,9 8,14 13,20 6,6 9,12 16,17 13,9 28,9 44,9 h 41 c 12,0 25,2 37,0 17,-3 27,-13 38,-26 8,-10 15,-18 13,-33 -2,-9 -8,-14 -13,-20 -6,-6 -9,-12 -16,-17 -14,-9 -28,-9 -44,-9 h -38 c -13,0 -26,-2 -39,0 z"
       id="path4022"
       style="display:inline;fill:#ffffff;fill-opacity:1" />
    <g
       id="g7291">
      <path
         fill="#fdfdfd"
         d="m 84,31 c -33,6 -42,51 -14,69 11,7 23,6 35,6 h 49 c 9,0 18,1 27,-1 32,-7 41,-51 12,-69 -11,-6 -24,-5 -36,-5 z"
         id="path4024"
         style="display:inline;fill:#2fc4ee;fill-opacity:1;stroke:#2fc4ee;stroke-opacity:1"
         inkscape:label="path4024" />
      <path
         fill="#2fc4ee"
         d="m 84,40 c -15,3 -21,23 -12,35 5,8 16,11 25,8 15,-3 21,-23 12,-35 -5,-8 -16,-11 -25,-8 m 83,0 c -15,3 -21,23 -12,35 5,8 16,11 25,8 15,-3 21,-23 12,-35 -5,-8 -16,-11 -25,-8 z"
         id="path4026"
         style="fill:#ffffff;fill-opacity:1" />
      <path
         fill="#fdfdfd"
         d="m 88,55 c -9,3 -4,16 5,13 9,-3 4,-16 -5,-13 m 83,0 c -9,3 -4,16 5,13 9,-3 4,-16 -5,-13 z"
         id="path4028"
         style="fill:#2fc4ee;fill-opacity:1" />
      <path
         fill="#2fc4ee"
         d="m 113,84 v 15 h 38 V 84 Z"
         id="path4030"
         style="fill:#ffffff;fill-opacity:1" />
    </g>
  </g>
</svg>
